<svg id="mmch-2" xmlns="http://www.w3.org/2000/svg" width="1920" height="1080" viewBox="0 0 1920 1080">
  <g id="mmch-area" fill="#fff" stroke="#707070" stroke-width="1">
    <rect width="1920" height="1080" stroke="none"/>
    <rect x="0.5" y="0.5" width="1919" height="1079" fill="none"/>
  </g>
  <path id="in-road-1" d="M666.667-3V290.667" transform="translate(-12 3)" fill="none" stroke="#707070" stroke-width="5"/>
  <path id="in-road-2" d="M350,290.667H667" transform="translate(-12 3)" fill="none" stroke="#707070" stroke-width="5"/>
  <path id="in-road-3" d="M1769,290.667H665" transform="translate(-12 3)" fill="none" stroke="#707070" stroke-width="5"/>
  <path id="in-road-4" d="M1769,772V289.333" transform="translate(-12 3)" fill="none" stroke="#707070" stroke-width="5"/>
  <path id="in-road-5" d="M614.667,583.667v179H1769.333" transform="translate(-12 11)" fill="none" stroke="#707070" stroke-width="5"/>
  <path id="in-road-6" d="M996,65.333v224" transform="translate(-12 3)" fill="none" stroke="#707070" stroke-width="5"/>
  <path id="in-road-7" d="M1769,519.474H1138.421l-75.037,75.037v101.8" transform="translate(-12 3)" fill="none" stroke="#707070" stroke-width="5"/>
  <g id="room-1">
    <g id="Rectangle_2" data-name="Rectangle 2" transform="translate(657 19)" fill="#fff" stroke="#707070" stroke-width="1">
      <rect width="108" height="42" stroke="none"/>
      <rect x="0.5" y="0.5" width="107" height="41" fill="none"/>
    </g>
    <text id="Room-1-2" data-name="Room-1" transform="translate(676 49)" fill="#707070" font-size="20" font-family="SegoeUI, Segoe UI"><tspan x="0" y="0">Room-1</tspan></text>
  </g>
  <g id="room-2" transform="translate(-112 182)">
    <g id="Rectangle_2-2" data-name="Rectangle 2" transform="translate(657 19)" fill="#fff" stroke="#707070" stroke-width="1">
      <rect width="108" height="42" stroke="none"/>
      <rect x="0.5" y="0.5" width="107" height="41" fill="none"/>
    </g>
    <text id="Room-2-2" data-name="Room-2" transform="translate(676 49)" fill="#707070" font-size="20" font-family="SegoeUI, Segoe UI"><tspan x="0" y="0">Room-2</tspan></text>
  </g>
  <g id="room-3" transform="translate(445 1061) rotate(-90)">
    <g id="Rectangle_2-3" data-name="Rectangle 2" transform="translate(657 19)" fill="#fff" stroke="#707070" stroke-width="1">
      <rect width="108" height="42" stroke="none"/>
      <rect x="0.5" y="0.5" width="107" height="41" fill="none"/>
    </g>
    <text id="Room-3-2" data-name="Room-3" transform="translate(676 49)" fill="#707070" font-size="20" font-family="SegoeUI, Segoe UI"><tspan x="0" y="0">Room-3</tspan></text>
  </g>
  <g id="room-3-3" data-name="room-3" transform="translate(776 1061) rotate(-90)">
    <g id="Rectangle_2-4" data-name="Rectangle 2" transform="translate(657 19)" fill="#fff" stroke="#707070" stroke-width="1">
      <rect width="108" height="42" stroke="none"/>
      <rect x="0.5" y="0.5" width="107" height="41" fill="none"/>
    </g>
    <text id="Room-4" transform="translate(676 49)" fill="#707070" font-size="20" font-family="SegoeUI, Segoe UI"><tspan x="0" y="0">Room-4</tspan></text>
  </g>
  <g id="room-5" transform="translate(329 72)">
    <g id="Rectangle_2-5" data-name="Rectangle 2" transform="translate(657 19)" fill="#fff" stroke="#707070" stroke-width="1">
      <rect width="108" height="42" stroke="none"/>
      <rect x="0.5" y="0.5" width="107" height="41" fill="none"/>
    </g>
    <text id="Room-5-2" data-name="Room-5" transform="translate(676 49)" fill="#707070" font-size="20" font-family="SegoeUI, Segoe UI"><tspan x="0" y="0">Room-5</tspan></text>
  </g>
  <g id="room-6" transform="translate(217 196)">
    <g id="Rectangle_2-6" data-name="Rectangle 2" transform="translate(657 19)" fill="#fff" stroke="#707070" stroke-width="1">
      <rect width="108" height="42" stroke="none"/>
      <rect x="0.5" y="0.5" width="107" height="41" fill="none"/>
    </g>
    <text id="Room-6-2" data-name="Room-6" transform="translate(676 49)" fill="#707070" font-size="20" font-family="SegoeUI, Segoe UI"><tspan x="0" y="0">Room-6</tspan></text>
  </g>
  <g id="room-7" transform="translate(1061 1061) rotate(-90)">
    <g id="Rectangle_2-7" data-name="Rectangle 2" transform="translate(657 19)" fill="#fff" stroke="#707070" stroke-width="1">
      <rect width="108" height="42" stroke="none"/>
      <rect x="0.5" y="0.5" width="107" height="41" fill="none"/>
    </g>
    <text id="Room-7-2" data-name="Room-7" transform="translate(676 49)" fill="#707070" font-size="20" font-family="SegoeUI, Segoe UI"><tspan x="0" y="0">Room-7</tspan></text>
  </g>
  <g id="room-8" transform="translate(1253 949) rotate(-90)">
    <g id="Rectangle_2-8" data-name="Rectangle 2" transform="translate(657 19)" fill="#fff" stroke="#707070" stroke-width="1">
      <rect width="108" height="42" stroke="none"/>
      <rect x="0.5" y="0.5" width="107" height="41" fill="none"/>
    </g>
    <text id="Room-8-2" data-name="Room-8" transform="translate(676 49)" fill="#707070" font-size="20" font-family="SegoeUI, Segoe UI"><tspan x="0" y="0">Room-8</tspan></text>
  </g>
  <g id="room-9" transform="translate(1472 1061) rotate(-90)">
    <g id="Rectangle_2-9" data-name="Rectangle 2" transform="translate(657 19)" fill="#fff" stroke="#707070" stroke-width="1">
      <rect width="108" height="42" stroke="none"/>
      <rect x="0.5" y="0.5" width="107" height="41" fill="none"/>
    </g>
    <text id="Room-9-2" data-name="Room-9" transform="translate(676 49)" fill="#707070" font-size="20" font-family="SegoeUI, Segoe UI"><tspan x="0" y="0">Room-9</tspan></text>
  </g>
  <g id="room-10" transform="translate(1635 949) rotate(-90)">
    <g id="Rectangle_2-10" data-name="Rectangle 2" transform="translate(657 19)" fill="#fff" stroke="#707070" stroke-width="1">
      <rect width="108" height="42" stroke="none"/>
      <rect x="0.5" y="0.5" width="107" height="41" fill="none"/>
    </g>
    <text id="Room-10-2" data-name="Room-10" transform="translate(676 49)" fill="#707070" font-size="20" font-family="SegoeUI, Segoe UI"><tspan x="0" y="0">Room-10</tspan></text>
  </g>
  <g id="room-11" transform="translate(1102 368)">
    <g id="Rectangle_2-11" data-name="Rectangle 2" transform="translate(657 19)" fill="#fff" stroke="#707070" stroke-width="1">
      <rect width="108" height="42" stroke="none"/>
      <rect x="0.5" y="0.5" width="107" height="41" fill="none"/>
    </g>
    <text id="Room-11-2" data-name="Room-11" transform="translate(676 49)" fill="#707070" font-size="20" font-family="SegoeUI, Segoe UI"><tspan x="0" y="0">Room-11</tspan></text>
  </g>
  <g id="room-12" transform="translate(1102 616)">
    <g id="Rectangle_2-12" data-name="Rectangle 2" transform="translate(657 19)" fill="#fff" stroke="#707070" stroke-width="1">
      <rect width="108" height="42" stroke="none"/>
      <rect x="0.5" y="0.5" width="107" height="41" fill="none"/>
    </g>
    <text id="Room-12-2" data-name="Room-12" transform="translate(676 49)" fill="#707070" font-size="20" font-family="SegoeUI, Segoe UI"><tspan x="0" y="0">Room-12</tspan></text>
  </g>
  <g id="room-9-3" data-name="room-9" transform="translate(1472 1289) rotate(-90)">
    <g id="Rectangle_2-13" data-name="Rectangle 2" transform="translate(657 19)" fill="#fff" stroke="#707070" stroke-width="1">
      <rect width="108" height="42" stroke="none"/>
      <rect x="0.5" y="0.5" width="107" height="41" fill="none"/>
    </g>
    <text id="Room-13" transform="translate(676 49)" fill="#707070" font-size="20" font-family="SegoeUI, Segoe UI"><tspan x="0" y="0">Room-13</tspan></text>
  </g>
  <g id="room-14" transform="translate(1253 1178) rotate(-90)">
    <g id="Rectangle_2-14" data-name="Rectangle 2" transform="translate(657 19)" fill="#fff" stroke="#707070" stroke-width="1">
      <rect width="108" height="42" stroke="none"/>
      <rect x="0.5" y="0.5" width="107" height="41" fill="none"/>
    </g>
    <text id="Room-14-2" data-name="Room-14" transform="translate(676 49)" fill="#707070" font-size="20" font-family="SegoeUI, Segoe UI"><tspan x="0" y="0">Room-14</tspan></text>
  </g>
  <g id="room-15" transform="translate(1600.436 1133.004) rotate(-135)">
    <g id="Rectangle_2-15" data-name="Rectangle 2" transform="translate(657 19)" fill="#fff" stroke="#707070" stroke-width="1">
      <rect width="108" height="42" stroke="none"/>
      <rect x="0.5" y="0.5" width="107" height="41" fill="none"/>
    </g>
    <text id="Room-15-2" data-name="Room-15" transform="translate(676 49)" fill="#707070" font-size="20" font-family="SegoeUI, Segoe UI"><tspan x="0" y="0">Room-15</tspan></text>
  </g>
  <g id="room-16" transform="translate(285 613)">
    <g id="Rectangle_2-16" data-name="Rectangle 2" transform="translate(657 19)" fill="#fff" stroke="#707070" stroke-width="1">
      <rect width="108" height="42" stroke="none"/>
      <rect x="0.5" y="0.5" width="107" height="41" fill="none"/>
    </g>
    <text id="Room-16-2" data-name="Room-16" transform="translate(676 49)" fill="#707070" font-size="20" font-family="SegoeUI, Segoe UI"><tspan x="0" y="0">Room-16</tspan></text>
  </g>
  <g id="room-18" transform="translate(1253 1429) rotate(-90)">
    <g id="Rectangle_2-17" data-name="Rectangle 2" transform="translate(657 19)" fill="#fff" stroke="#707070" stroke-width="1">
      <rect width="108" height="42" stroke="none"/>
      <rect x="0.5" y="0.5" width="107" height="41" fill="none"/>
    </g>
    <text id="Room-18-2" data-name="Room-18" transform="translate(676 49)" fill="#707070" font-size="20" font-family="SegoeUI, Segoe UI"><tspan x="0" y="0">Room-18</tspan></text>
  </g>
  <g id="room-17" transform="translate(1597 1429) rotate(-90)">
    <g id="Rectangle_2-18" data-name="Rectangle 2" transform="translate(657 19)" fill="#fff" stroke="#707070" stroke-width="1">
      <rect width="108" height="42" stroke="none"/>
      <rect x="0.5" y="0.5" width="107" height="41" fill="none"/>
    </g>
    <text id="Room-17-2" data-name="Room-17" transform="translate(676 49)" fill="#707070" font-size="20" font-family="SegoeUI, Segoe UI"><tspan x="0" y="0">Room-17</tspan></text>
  </g>
  <g id="room-20" transform="translate(-164 613)">
    <g id="Rectangle_2-19" data-name="Rectangle 2" transform="translate(657 19)" fill="#fff" stroke="#707070" stroke-width="1">
      <rect width="108" height="42" stroke="none"/>
      <rect x="0.5" y="0.5" width="107" height="41" fill="none"/>
    </g>
    <text id="Room-20-2" data-name="Room-20" transform="translate(676 49)" fill="#707070" font-size="20" font-family="SegoeUI, Segoe UI"><tspan x="0" y="0">Room-20</tspan></text>
  </g>
  <g id="room-19" transform="translate(861 1541) rotate(-90)">
    <g id="Rectangle_2-20" data-name="Rectangle 2" transform="translate(657 19)" fill="#fff" stroke="#707070" stroke-width="1">
      <rect width="108" height="42" stroke="none"/>
      <rect x="0.5" y="0.5" width="107" height="41" fill="none"/>
    </g>
    <text id="Room-19-2" data-name="Room-19" transform="translate(676 49)" fill="#707070" font-size="20" font-family="SegoeUI, Segoe UI"><tspan x="0" y="0">Room-19</tspan></text>
  </g>
  <circle id="main-gate" cx="1.5" cy="1.5" r="1.5" transform="translate(653 1)" fill="#fff"/>
  <circle id="in-room-1-road-1" cx="1.5" cy="1.5" r="1.5" transform="translate(653 37)" fill="#fff"/>
  <circle id="in-room-2-road-1" cx="1.5" cy="1.5" r="1.5" transform="translate(653 221)" fill="#fff"/>
  <circle id="in-turn-1" cx="1.5" cy="1.5" r="1.5" transform="translate(653 292)" fill="#fff"/>
  <circle id="in-room-3-road-2" cx="1.5" cy="1.5" r="1.5" transform="translate(485 292)" fill="#fff"/>
  <circle id="in-close-gate-1" cx="1.5" cy="1.5" r="1.5" transform="translate(338 292)" fill="#fff"/>
  <circle id="in-room-4-road-3" cx="1.5" cy="1.5" r="1.5" transform="translate(815 292)" fill="#fff"/>
  <circle id="in-room-7-road-3" cx="1.5" cy="1.5" r="1.5" transform="translate(1100 292)" fill="#fff"/>
  <circle id="in-room-8-road-3" cx="1.5" cy="1.5" r="1.5" transform="translate(1292 292)" fill="#fff"/>
  <circle id="in-room-9-road-3" cx="1.5" cy="1.5" r="1.5" transform="translate(1511 292)" fill="#fff"/>
  <circle id="in-room-10-road-3" cx="1.5" cy="1.5" r="1.5" transform="translate(1675 292)" fill="#fff"/>
  <circle id="in-turn-3" cx="1.5" cy="1.5" r="1.5" transform="translate(1754 292)" fill="#fff"/>
  <circle id="in-turn-2" cx="1.5" cy="1.5" r="1.5" transform="translate(982 292)" fill="#fff"/>
  <circle id="in-close-gate-2" cx="1.5" cy="1.5" r="1.5" transform="translate(982 69)" fill="#fff"/>
  <circle id="in-room-6-road-6" cx="1.5" cy="1.5" r="1.5" transform="translate(982 235)" fill="#fff"/>
  <circle id="in-room-5-road-6" cx="1.5" cy="1.5" r="1.5" transform="translate(982 111)" fill="#fff"/>
  <circle id="in-room-11-road-4" cx="1.5" cy="1.5" r="1.5" transform="translate(1755 407)" fill="#fff"/>
  <circle id="in-turn-4" cx="1.5" cy="1.5" r="1.5" transform="translate(1754 521)" fill="#fff"/>
  <circle id="in-room-14-road-7" cx="1.5" cy="1.5" r="1.5" transform="translate(1292 521)" fill="#fff"/>
  <circle id="in-room-15-road-7" cx="1.5" cy="1.5" r="1.5" transform="translate(1085 561)" fill="#fff"/>
  <circle id="in-turn-5" cx="1.5" cy="1.5" r="1.5" transform="translate(1124 521)" fill="#fff"/>
  <circle id="in-turn-6" cx="1.5" cy="1.5" r="1.5" transform="translate(1050 596)" fill="#fff"/>
  <circle id="in-close-gate-3" cx="1.5" cy="1.5" r="1.5" transform="translate(1050 696)" fill="#fff"/>
  <circle id="in-room-13-road-7" cx="1.5" cy="1.5" r="1.5" transform="translate(1511 521)" fill="#fff"/>
  <circle id="in-room-12-road-4" cx="1.5" cy="1.5" r="1.5" transform="translate(1756 656)" fill="#fff"/>
  <circle id="in-turn-7" cx="1.5" cy="1.5" r="1.5" transform="translate(1754 771)" fill="#fff"/>
  <circle id="in-room-17-road-5" cx="1.5" cy="1.5" r="1.5" transform="translate(1636 772)" fill="#fff"/>
  <circle id="in-room-18-road-5" cx="1.5" cy="1.5" r="1.5" transform="translate(1292 772)" fill="#fff"/>
  <circle id="in-room-19-road-5" cx="1.5" cy="1.5" r="1.5" transform="translate(901 772)" fill="#fff"/>
  <circle id="in-turn-8" cx="1.5" cy="1.5" r="1.5" transform="translate(601 772)" fill="#fff"/>
  <circle id="in-room-20-road-5" cx="1.5" cy="1.5" r="1.5" transform="translate(601 653)" fill="#fff"/>
  <circle id="in-close-gate-4" cx="1.5" cy="1.5" r="1.5" transform="translate(601 595)" fill="#fff"/>
</svg>
